<?xml version="1.0" encoding="utf-8"?>
<!-- Generator: Adobe Illustrator 16.0.0, SVG Export Plug-In . SVG Version: 6.00 Build 0)  -->
<!DOCTYPE svg PUBLIC "-//W3C//DTD SVG 1.1//EN" "http://www.w3.org/Graphics/SVG/1.1/DTD/svg11.dtd">
<svg version="1.1" id="Layer_1" xmlns="http://www.w3.org/2000/svg" xmlns:xlink="http://www.w3.org/1999/xlink" x="0px" y="0px"
	 width="420.547px" height="288.589px" viewBox="0 0 420.547 288.589" enable-background="new 0 0 420.547 288.589"
	 xml:space="preserve">
<g>
	<g>
		<g>
			<g>
				<path fill="#282829" d="M200.139,18.092v53.207c0,4.651-3.801,8.444-8.537,8.618V18.092h-15.058v61.825
					c-4.736-0.174-8.538-3.967-8.538-8.618V18.092H152.95v53.207c0,12.73,10.555,23.102,23.595,23.278v91.809h15.058V94.577
					c13.04-0.176,23.595-10.547,23.595-23.278V18.092H200.139z"/>
			</g>
			<g>
				<path fill="#282829" d="M276.926,56.186c0-20.716-17.086-37.611-38.264-38.071c-0.147-0.009-0.294-0.021-0.443-0.021h-7.969
					v168.293h15.057v-56.427l31.619-15.433V56.186z M261.87,105.484l-16.562,8.084V33.922c9.607,3.084,16.562,11.896,16.562,22.263
					V105.484z"/>
			</g>
		</g>
		<g>
			<polygon fill="#282829" points="312.797,0 291.039,0 362.898,102.239 291.039,204.478 312.797,204.478 384.656,102.239 			"/>
		</g>
		<g>
			<polygon fill="#282829" points="133.832,0 112.073,0 40.214,102.239 112.073,204.478 133.832,204.478 61.973,102.239 			"/>
		</g>
	</g>
	<g enable-background="new    ">
		<path fill="#282829" d="M40.148,272.558c-0.164,2.578-0.721,4.898-1.67,6.961s-2.221,3.82-3.814,5.273
			c-1.594,1.453-3.493,2.572-5.695,3.357c-2.203,0.785-4.641,1.178-7.312,1.178c-3.023,0-5.708-0.557-8.051-1.67
			c-2.344-1.113-4.312-2.672-5.906-4.676c-1.594-2.004-2.812-4.412-3.656-7.225s-1.266-5.906-1.266-9.281v-6.891
			c0-3.398,0.445-6.504,1.336-9.316c0.891-2.812,2.156-5.227,3.797-7.242c1.64-2.016,3.626-3.58,5.959-4.693
			c2.332-1.113,4.951-1.67,7.857-1.67c2.812,0,5.314,0.398,7.506,1.195c2.191,0.797,4.061,1.934,5.607,3.41s2.765,3.281,3.656,5.414
			c0.891,2.133,1.453,4.535,1.688,7.207H30.34c-0.094-1.523-0.322-2.859-0.686-4.008c-0.364-1.148-0.891-2.104-1.582-2.865
			c-0.691-0.762-1.559-1.336-2.602-1.723c-1.043-0.387-2.291-0.58-3.744-0.58c-1.524,0-2.848,0.328-3.973,0.984
			s-2.057,1.617-2.795,2.883s-1.283,2.818-1.635,4.658s-0.527,3.932-0.527,6.275v6.961c0,5.039,0.708,8.766,2.127,11.18
			c1.418,2.414,3.662,3.621,6.732,3.621c2.578,0,4.617-0.686,6.117-2.057c1.5-1.371,2.332-3.592,2.496-6.662H40.148z"/>
		<path fill="#282829" d="M83.531,266.757c0,3.281-0.434,6.305-1.301,9.07c-0.867,2.766-2.122,5.145-3.762,7.137
			c-1.641,1.992-3.639,3.545-5.994,4.658s-5.01,1.67-7.963,1.67s-5.578-0.557-7.875-1.67c-2.297-1.113-4.231-2.672-5.801-4.676
			c-1.57-2.004-2.766-4.383-3.586-7.137c-0.821-2.754-1.23-5.771-1.23-9.053v-7.453c0-3.281,0.41-6.305,1.23-9.07
			c0.82-2.766,2.016-5.15,3.586-7.154c1.57-2.004,3.498-3.568,5.783-4.693s4.904-1.688,7.857-1.688c2.976,0,5.643,0.562,7.998,1.688
			s4.354,2.689,5.994,4.693c1.64,2.004,2.895,4.389,3.762,7.154c0.867,2.766,1.301,5.789,1.301,9.07V266.757z M73.511,259.234
			c0-2.086-0.17-4.008-0.51-5.766c-0.34-1.758-0.874-3.27-1.6-4.535c-0.727-1.266-1.658-2.256-2.795-2.971
			c-1.137-0.715-2.514-1.072-4.131-1.072c-1.594,0-2.93,0.357-4.008,1.072c-1.078,0.715-1.946,1.705-2.602,2.971
			c-0.656,1.266-1.125,2.777-1.406,4.535s-0.422,3.68-0.422,5.766v7.523c0,2.062,0.141,3.973,0.422,5.73s0.75,3.281,1.406,4.57
			c0.656,1.289,1.523,2.297,2.602,3.023c1.078,0.727,2.426,1.09,4.043,1.09c1.594,0,2.958-0.363,4.096-1.09
			c1.137-0.727,2.062-1.729,2.777-3.006c0.715-1.277,1.248-2.795,1.6-4.553s0.527-3.68,0.527-5.766V259.234z"/>
		<path fill="#282829" d="M103.148,237.402l4.852,19.23l5.52-19.23h12.27v51.188h-9.07v-15.152l0.422-23.941l-6.715,22.219h-4.887
			l-6.012-21.27l0.422,22.992v15.152h-9.07v-51.188H103.148z"/>
		<path fill="#282829" d="M165.726,266.16h-21.023v14.449h24.574v7.98h-34.488v-51.188h34.383v8.051h-24.469v12.902h21.023V266.16z"
			/>
	</g>
	<g enable-background="new    ">
		<path fill="#282829" d="M194.906,282.613c1.031,0,2.033-0.164,3.006-0.492c0.972-0.328,1.833-0.785,2.584-1.371
			c0.75-0.586,1.341-1.277,1.775-2.074c0.434-0.797,0.638-1.664,0.615-2.602h7.946c0.022,1.828-0.393,3.545-1.249,5.15
			c-0.856,1.605-2.016,3.006-3.48,4.201c-1.465,1.195-3.159,2.145-5.08,2.848c-1.922,0.703-3.938,1.055-6.047,1.055
			c-2.93,0-5.497-0.504-7.699-1.512c-2.203-1.008-4.043-2.385-5.52-4.131s-2.584-3.773-3.322-6.082s-1.107-4.764-1.107-7.365v-1.266
			c0-2.602,0.369-5.062,1.107-7.383s1.846-4.348,3.322-6.082s3.316-3.111,5.52-4.131c2.203-1.02,4.758-1.529,7.664-1.529
			c2.297,0,4.424,0.352,6.381,1.055c1.957,0.703,3.644,1.688,5.062,2.953c1.418,1.266,2.519,2.777,3.305,4.535
			c0.785,1.758,1.166,3.68,1.143,5.766h-7.946c0.023-1.031-0.158-2.004-0.545-2.918s-0.944-1.711-1.67-2.391
			c-0.727-0.68-1.582-1.219-2.566-1.617s-2.062-0.598-3.234-0.598c-1.758,0-3.223,0.357-4.395,1.072
			c-1.172,0.715-2.109,1.652-2.812,2.812s-1.201,2.479-1.494,3.955c-0.293,1.477-0.439,2.977-0.439,4.5v1.266
			c0,1.547,0.146,3.059,0.439,4.535c0.293,1.477,0.791,2.795,1.494,3.955s1.64,2.098,2.812,2.812
			C191.648,282.255,193.125,282.613,194.906,282.613z"/>
		<path fill="#282829" d="M219.938,269.218c0-2.742,0.404-5.297,1.213-7.664s1.969-4.418,3.48-6.152s3.357-3.094,5.537-4.078
			s4.652-1.477,7.418-1.477c2.789,0,5.278,0.492,7.471,1.477c2.191,0.984,4.043,2.344,5.555,4.078s2.666,3.785,3.463,6.152
			c0.796,2.367,1.195,4.922,1.195,7.664v0.738c0,2.766-0.399,5.332-1.195,7.699c-0.797,2.367-1.951,4.412-3.463,6.135
			s-3.357,3.076-5.537,4.061s-4.653,1.477-7.418,1.477c-2.79,0-5.279-0.492-7.471-1.477c-2.192-0.984-4.043-2.338-5.555-4.061
			s-2.672-3.768-3.48-6.135s-1.213-4.934-1.213-7.699V269.218z M228.34,269.957c0,1.734,0.181,3.363,0.545,4.887
			c0.363,1.523,0.926,2.865,1.688,4.025c0.761,1.16,1.728,2.074,2.9,2.742c1.172,0.668,2.566,1.002,4.184,1.002
			c1.569,0,2.936-0.334,4.096-1.002s2.121-1.582,2.883-2.742c0.761-1.16,1.323-2.502,1.688-4.025
			c0.363-1.523,0.545-3.152,0.545-4.887v-0.738c0-1.688-0.182-3.293-0.545-4.816c-0.364-1.523-0.927-2.859-1.688-4.008
			c-0.762-1.148-1.723-2.062-2.883-2.742s-2.549-1.02-4.166-1.02c-1.595,0-2.977,0.34-4.148,1.02
			c-1.173,0.68-2.133,1.594-2.883,2.742c-0.751,1.148-1.307,2.484-1.67,4.008c-0.364,1.523-0.545,3.129-0.545,4.816V269.957z"/>
		<path fill="#282829" d="M263.567,269.289c0-2.883,0.352-5.52,1.055-7.91s1.71-4.441,3.023-6.152
			c1.312-1.711,2.9-3.035,4.764-3.973s3.955-1.406,6.275-1.406c2.086,0,3.925,0.357,5.52,1.072c1.594,0.715,2.988,1.74,4.184,3.076
			v-19.406h8.438v54h-7.629l-0.422-3.867c-1.195,1.477-2.632,2.607-4.307,3.393c-1.676,0.785-3.627,1.178-5.854,1.178
			c-2.298,0-4.372-0.486-6.223-1.459c-1.852-0.973-3.428-2.314-4.729-4.025s-2.309-3.744-3.023-6.1
			c-0.716-2.355-1.072-4.916-1.072-7.682V269.289z M271.969,270.027c0,1.711,0.163,3.316,0.492,4.816
			c0.328,1.5,0.849,2.812,1.564,3.938c0.715,1.125,1.629,2.01,2.742,2.654c1.112,0.645,2.443,0.967,3.99,0.967
			c1.921,0,3.492-0.416,4.711-1.248c1.218-0.832,2.191-1.951,2.918-3.357v-16.523c-0.727-1.383-1.705-2.484-2.936-3.305
			s-2.772-1.23-4.623-1.23c-1.57,0-2.913,0.328-4.025,0.984c-1.113,0.656-2.027,1.559-2.742,2.707
			c-0.716,1.148-1.243,2.484-1.582,4.008c-0.34,1.523-0.51,3.141-0.51,4.852V270.027z"/>
	</g>
	<g enable-background="new    ">
		<path fill="#282829" d="M325.617,289.292c-2.812,0-5.379-0.469-7.699-1.406s-4.307-2.227-5.959-3.867s-2.936-3.58-3.85-5.818
			s-1.371-4.658-1.371-7.26V269.5c0-3.023,0.486-5.742,1.459-8.156s2.273-4.477,3.902-6.188s3.527-3.023,5.695-3.938
			s4.447-1.371,6.838-1.371c2.766,0,5.203,0.463,7.312,1.389s3.873,2.227,5.291,3.902s2.49,3.662,3.217,5.959s1.09,4.816,1.09,7.559
			v3.551h-26.367c0.141,1.477,0.504,2.848,1.09,4.113s1.354,2.361,2.303,3.287s2.062,1.652,3.34,2.18s2.678,0.791,4.201,0.791
			c2.133,0,4.096-0.422,5.889-1.266s3.252-2.004,4.377-3.48l4.57,4.289c-0.609,0.914-1.395,1.799-2.355,2.654
			s-2.086,1.617-3.375,2.285s-2.736,1.207-4.342,1.617S327.516,289.292,325.617,289.292z M324.598,256.632
			c-1.172,0-2.262,0.211-3.27,0.633s-1.91,1.037-2.707,1.846s-1.471,1.793-2.021,2.953s-0.943,2.479-1.178,3.955h17.824v-0.633
			c-0.07-1.125-0.287-2.209-0.65-3.252s-0.896-1.975-1.6-2.795s-1.588-1.477-2.654-1.969S326.028,256.632,324.598,256.632z"/>
		<path fill="#282829" d="M374.276,249.847c0.68,0,1.358,0.023,2.039,0.07c0.68,0.047,1.33,0.117,1.951,0.211
			c0.62,0.094,1.189,0.193,1.705,0.299c0.515,0.105,0.949,0.229,1.301,0.369l-1.195,8.262c-2.579-0.586-5.121-0.879-7.629-0.879
			c-2.812,0-5.08,0.586-6.803,1.758s-2.994,2.801-3.814,4.887v23.766h-8.402V250.55h7.875l0.387,5.941
			c1.547-2.062,3.38-3.686,5.502-4.869C369.313,250.439,371.674,249.847,374.276,249.847z"/>
	</g>
	<g enable-background="new    ">
		<path fill="#282829" d="M411.897,278.289c0-0.633-0.129-1.213-0.387-1.74s-0.721-1.008-1.389-1.441s-1.582-0.838-2.742-1.213
			s-2.643-0.738-4.447-1.09c-2.25-0.469-4.283-1.031-6.1-1.688s-3.375-1.441-4.676-2.355s-2.303-1.975-3.006-3.182
			s-1.055-2.607-1.055-4.201c0-1.547,0.363-3.018,1.09-4.412s1.764-2.619,3.111-3.674s2.988-1.893,4.922-2.514
			s4.096-0.932,6.486-0.932c2.531,0,4.799,0.316,6.803,0.949s3.697,1.494,5.08,2.584s2.443,2.373,3.182,3.85
			s1.107,3.059,1.107,4.746h-8.402c0-0.75-0.164-1.471-0.492-2.162s-0.82-1.307-1.477-1.846s-1.471-0.967-2.443-1.283
			s-2.092-0.475-3.357-0.475s-2.361,0.135-3.287,0.404s-1.693,0.621-2.303,1.055s-1.061,0.943-1.354,1.529s-0.439,1.195-0.439,1.828
			s0.111,1.207,0.334,1.723s0.639,0.984,1.248,1.406s1.453,0.803,2.531,1.143s2.473,0.662,4.184,0.967
			c2.391,0.422,4.541,0.949,6.451,1.582s3.539,1.406,4.887,2.32s2.385,1.998,3.111,3.252s1.09,2.725,1.09,4.412
			s-0.387,3.234-1.16,4.641s-1.875,2.619-3.305,3.639s-3.146,1.811-5.15,2.373s-4.248,0.844-6.732,0.844
			c-2.766,0-5.203-0.369-7.312-1.107s-3.879-1.705-5.309-2.9s-2.514-2.555-3.252-4.078s-1.107-3.07-1.107-4.641h8.156
			c0.07,1.172,0.375,2.168,0.914,2.988s1.23,1.482,2.074,1.986s1.781,0.867,2.812,1.09s2.074,0.334,3.129,0.334
			c2.602,0,4.582-0.439,5.941-1.318S411.897,279.671,411.897,278.289z"/>
	</g>
</g>
</svg>
