<?xml version="1.0" encoding="utf-8"?>
<!-- Generator: Adobe Illustrator 16.0.0, SVG Export Plug-In . SVG Version: 6.00 Build 0)  -->
<!DOCTYPE svg PUBLIC "-//W3C//DTD SVG 1.1//EN" "http://www.w3.org/Graphics/SVG/1.1/DTD/svg11.dtd">
<svg version="1.1" id="Layer_1" xmlns="http://www.w3.org/2000/svg" xmlns:xlink="http://www.w3.org/1999/xlink" x="0px" y="0px"
	 width="50px" height="50px" viewBox="0 0 50 50" enable-background="new 0 0 50 50" xml:space="preserve">
<g>
	<path fill="#F2F2F2" d="M28.481,49.999c-1.141,0-2.281,0-3.422,0c5.247-5.328,10.482-10.671,15.748-15.981
		c2.854-2.878,5.76-5.701,8.794-8.701c-1.781-0.63-2.693,0.11-3.647,1.072C39.53,32.865,33.072,39.307,26.6,45.738
		c-0.394,0.391-0.64,1.161-1.415,0.949c-0.536-2.013,0.308-3.342,1.712-4.703c5.207-5.044,10.29-10.214,15.397-15.359
		c0.407-0.411,1.133-0.677,1.011-1.438c-1.64-0.494-2.76,0.173-3.88,1.327c-3.797,3.915-7.679,7.75-11.556,11.591
		c-0.824,0.816-1.511,1.834-2.662,2.354c-0.486-1.997,0.121-3.347,1.512-4.662c3.577-3.383,6.998-6.932,10.481-10.415
		c-0.169-0.196-0.338-0.389-0.507-0.583c-5.281,1.14-7.164,6.767-11.533,9.282c-0.994-4.74,4.179-5.656,5.435-8.847
		c-2.657-1.158-3.554,1.532-5.634,2.768c0-1.95,0-3.554,0-5.427c-2.894,2.675-2.894,2.675-5.738,2.086
		c1.346-1.303,2.548-2.492,3.779-3.652c1.286-1.213,2.742-2.339,1.656-4.908c-2.479,2.582-4.9,4.967-7.153,7.501
		c-1.283,1.443-2.638,1.814-4.737,1.106c3.708-3.649,7.205-7.158,10.784-10.58c1.189-1.136,1.957-2.259,1.213-4.217
		c-4.581,4.594-9.099,9.026-13.486,13.584c-1.32,1.371-2.64,1.898-4.655,1.322c0.758-0.814,1.385-1.529,2.057-2.2
		c5.005-5.01,9.983-10.049,15.056-14.99c1.175-1.145,1.624-2.268,0.762-4.164c-0.635,0.491-0.943,1.295-1.497,1.855
		c-5.789,5.846-11.676,11.595-17.394,17.507c-1.596,1.649-3.188,2.639-5.49,2.233c0-0.163,0-0.327,0-0.489
		c2.505-2.423,5.049-4.807,7.507-7.278c5.67-5.702,11.299-11.447,16.945-17.174c7.988,0,15.976,0.031,23.963-0.033
		c1.224-0.009,1.507,0.276,1.499,1.5c-0.06,8.965-0.033,17.931-0.033,26.896C42.625,35.454,35.451,42.623,28.481,49.999z"/>
	<path fill-rule="evenodd" clip-rule="evenodd" fill="none" d="M0.118,25.058c2.301,0.406,3.894-0.583,5.49-2.233
		c5.718-5.913,11.605-11.662,17.394-17.507c0.554-0.56,0.862-1.365,1.497-1.855c0.862,1.896,0.414,3.02-0.762,4.164
		c-5.073,4.941-10.051,9.98-15.056,14.99c-0.671,0.671-1.299,1.386-2.057,2.2c2.015,0.576,3.335,0.049,4.655-1.322
		c4.387-4.559,8.905-8.991,13.486-13.584c0.744,1.958-0.024,3.082-1.213,4.217c-3.579,3.422-7.077,6.931-10.784,10.58
		c2.099,0.708,3.455,0.337,4.737-1.106c2.253-2.534,4.673-4.919,7.153-7.501c1.085,2.569-0.37,3.695-1.656,4.908
		c-1.23,1.16-2.433,2.349-3.779,3.652c2.845,0.589,2.845,0.589,5.738-2.086c0,1.873,0,3.477,0,5.427
		c2.08-1.235,2.977-3.925,5.634-2.768c-1.256,3.19-6.428,4.106-5.435,8.847c4.369-2.516,6.252-8.143,11.533-9.282
		c0.169,0.194,0.338,0.387,0.507,0.583c-3.483,3.483-6.904,7.032-10.481,10.415c-1.391,1.315-1.998,2.665-1.512,4.662
		c1.151-0.52,1.838-1.537,2.662-2.354c3.877-3.841,7.759-7.676,11.556-11.591c1.12-1.154,2.24-1.821,3.88-1.327
		c0.122,0.761-0.604,1.027-1.011,1.438c-5.107,5.146-10.19,10.315-15.397,15.359c-1.404,1.361-2.248,2.69-1.712,4.703
		c0.775,0.212,1.021-0.559,1.415-0.949c6.472-6.431,12.93-12.873,19.354-19.35c0.954-0.961,1.866-1.702,3.647-1.072
		c-3.034,3-5.94,5.823-8.794,8.701c-5.266,5.311-10.501,10.653-15.748,15.981c-7.825,0-15.65-0.03-23.473,0.033
		c-1.224,0.01-1.51-0.275-1.5-1.5C0.149,40.707,0.118,32.881,0.118,25.058z"/>
	<path fill-rule="evenodd" clip-rule="evenodd" fill="#F2F2F2" d="M18.701,0.117c1.141,0,2.282,0,3.423,0
		C14.991,7.654,7.655,14.99,0.118,22.124c0-1.141,0-2.283,0-3.423C6.512,12.705,12.711,6.516,18.701,0.117z"/>
	<path fill-rule="evenodd" clip-rule="evenodd" fill="none" d="M28.481,49.999c6.97-7.376,14.145-14.545,21.518-21.518
		c0,0.979,0,1.957,0,2.936c-6.349,6.038-12.58,12.195-18.582,18.582C30.438,49.999,29.459,49.999,28.481,49.999z"/>
	<path fill-rule="evenodd" clip-rule="evenodd" fill="#F2F2F2" d="M31.417,49.999c6.002-6.387,12.233-12.544,18.582-18.582
		c0,1.14,0,2.281,0,3.423c-5.255,4.853-10.309,9.902-15.158,15.159C33.699,49.999,32.558,49.999,31.417,49.999z"/>
	<path fill-rule="evenodd" clip-rule="evenodd" fill="none" d="M0.118,22.124C7.655,14.99,14.991,7.654,22.124,0.117
		c0.816,0,1.631,0,2.446,0C18.924,5.844,13.295,11.589,7.625,17.291c-2.458,2.471-5.002,4.854-7.507,7.278
		C0.118,23.753,0.118,22.938,0.118,22.124z"/>
	<path fill-rule="evenodd" clip-rule="evenodd" fill="none" d="M18.701,0.117C12.711,6.516,6.512,12.705,0.118,18.701
		c0-0.978,0-1.957,0-2.934c5.404-5.028,10.62-10.246,15.649-15.649C16.746,0.117,17.724,0.117,18.701,0.117z"/>
	<path fill-rule="evenodd" clip-rule="evenodd" fill="#F2F2F2" d="M15.767,0.117C10.738,5.521,5.522,10.738,0.118,15.767
		c0-1.142,0-2.283,0-3.424C4.397,8.471,8.472,4.396,12.344,0.117C13.485,0.117,14.626,0.117,15.767,0.117z"/>
	<path fill-rule="evenodd" clip-rule="evenodd" fill="none" d="M34.84,49.999c4.85-5.257,9.903-10.307,15.158-15.159
		c0,0.978,0,1.956,0,2.935c-4.28,3.868-8.347,7.955-12.225,12.225C36.795,49.999,35.817,49.999,34.84,49.999z"/>
	<path fill-rule="evenodd" clip-rule="evenodd" fill="#F2F2F2" d="M37.774,49.999c3.878-4.27,7.944-8.356,12.225-12.225
		c0,1.139,0,2.28,0,3.422c-3.142,2.728-6.069,5.666-8.802,8.803C40.055,49.999,38.914,49.999,37.774,49.999z"/>
	<path fill-rule="evenodd" clip-rule="evenodd" fill="none" d="M12.344,0.117C8.472,4.396,4.397,8.471,0.118,12.343
		c0-0.978,0-1.957,0-2.934C3.417,6.513,6.515,3.416,9.41,0.117C10.388,0.117,11.366,0.117,12.344,0.117z"/>
	<path fill-rule="evenodd" clip-rule="evenodd" fill="#F2F2F2" d="M9.41,0.117C6.515,3.416,3.417,6.513,0.118,9.409
		c0-1.141,0-2.282,0-3.423c2.16-1.753,4.116-3.709,5.869-5.869C7.127,0.117,8.269,0.117,9.41,0.117z"/>
	<path fill-rule="evenodd" clip-rule="evenodd" fill="none" d="M41.197,49.999c2.732-3.137,5.66-6.075,8.802-8.803
		c0,0.979,0,1.956,0,2.936c-2.156,1.752-4.11,3.713-5.867,5.867C43.152,49.999,42.174,49.999,41.197,49.999z"/>
	<path fill-rule="evenodd" clip-rule="evenodd" fill="#F2F2F2" d="M44.131,49.999c1.757-2.154,3.711-4.115,5.867-5.867
		c0,1.956,0,3.91,0,5.867C48.043,49.999,46.087,49.999,44.131,49.999z"/>
	<path fill-rule="evenodd" clip-rule="evenodd" fill="none" d="M5.987,0.117C4.234,2.276,2.278,4.232,0.118,5.986
		c0-0.979,0-1.956,0-2.934c1.179-0.778,2.157-1.756,2.934-2.935C4.031,0.117,5.008,0.117,5.987,0.117z"/>
	<path fill-rule="evenodd" clip-rule="evenodd" fill="#F2F2F2" d="M3.052,0.117C2.275,1.296,1.297,2.274,0.118,3.052
		C-0.434,0.543,0.544-0.435,3.052,0.117z"/>
</g>
</svg>
