<?xml version="1.0" encoding="utf-8"?>
<!-- Generator: Adobe Illustrator 16.0.0, SVG Export Plug-In . SVG Version: 6.00 Build 0)  -->
<!DOCTYPE svg PUBLIC "-//W3C//DTD SVG 1.1//EN" "http://www.w3.org/Graphics/SVG/1.1/DTD/svg11.dtd">
<svg version="1.1" id="Layer_1" xmlns="http://www.w3.org/2000/svg" xmlns:xlink="http://www.w3.org/1999/xlink" x="0px" y="0px"
	 width="100px" height="100px" viewBox="0 0 100 100" enable-background="new 0 0 100 100" xml:space="preserve">
<g>
	<path fill="#1A1A1A" d="M50,0.127c-27.542,0-49.875,22.889-49.875,51.146c0,22.6,14.294,41.746,34.111,48.516
		c2.494,0.468,3.406-1.113,3.406-2.471c0-1.228-0.045-4.432-0.067-8.707c-13.872,3.096-16.812-6.856-16.812-6.856
		c-2.271-5.901-5.543-7.481-5.543-7.481c-4.521-3.185,0.334-3.117,0.334-3.117c5.008,0.357,7.637,5.277,7.637,5.277
		c4.453,7.814,11.666,5.564,14.517,4.252c0.446-3.295,1.737-5.563,3.162-6.834c-11.065-1.291-22.711-5.679-22.711-25.271
		c0-5.59,1.938-10.154,5.12-13.717c-0.512-1.291-2.227-6.502,0.49-13.537c0,0,4.187-1.381,13.717,5.231
		c3.984-1.135,8.238-1.692,12.49-1.714c4.23,0.021,8.506,0.579,12.491,1.714c9.53-6.612,13.693-5.231,13.693-5.231
		c2.716,7.035,1.002,12.246,0.488,13.537c3.186,3.586,5.121,8.149,5.121,13.717c0,19.639-11.668,23.958-22.776,25.227
		c1.78,1.582,3.385,4.698,3.385,9.463c0,6.836-0.065,12.357-0.065,14.027c0,1.357,0.892,2.961,3.43,2.449
		c19.859-6.748,34.133-25.896,34.133-48.473C99.875,23.016,77.543,0.127,50,0.127z"/>
</g>
</svg>
