<?xml version="1.0" encoding="utf-8"?>
<!-- Generator: Adobe Illustrator 16.0.0, SVG Export Plug-In . SVG Version: 6.00 Build 0)  -->
<!DOCTYPE svg PUBLIC "-//W3C//DTD SVG 1.1//EN" "http://www.w3.org/Graphics/SVG/1.1/DTD/svg11.dtd">
<svg version="1.1" id="Layer_1" xmlns="http://www.w3.org/2000/svg" xmlns:xlink="http://www.w3.org/1999/xlink" x="0px" y="0px"
	 width="100px" height="100px" viewBox="0 0 100 100" enable-background="new 0 0 100 100" xml:space="preserve">
<path fill="#1A1A1A" d="M77.922,73.443V54.021c0-10.409-5.559-15.25-12.961-15.25c-5.979,0-8.654,3.288-10.146,5.595v-4.799H43.552
	c0.149,3.179,0,33.875,0,33.875h11.26V54.523c0-1.008,0.068-2.021,0.371-2.742c0.812-2.023,2.664-4.118,5.771-4.118
	c4.078,0,5.706,3.106,5.706,7.657v18.127h11.26L77.922,73.443L77.922,73.443z M31.69,34.945c3.926,0,6.371-2.604,6.371-5.855
	c-0.073-3.321-2.445-5.851-6.296-5.851c-3.85,0-6.369,2.528-6.369,5.851c0,3.251,2.444,5.855,6.224,5.855H31.69z M50,99.75
	C22.525,99.75,0.25,77.477,0.25,50C0.25,22.523,22.525,0.25,50,0.25c27.477,0,49.75,22.273,49.75,49.75
	C99.75,77.477,77.477,99.75,50,99.75z M37.32,73.443V39.569H26.062v33.875H37.32L37.32,73.443z"/>
</svg>
