<?xml version="1.0" encoding="utf-8"?>
<!-- Generator: Adobe Illustrator 16.0.0, SVG Export Plug-In . SVG Version: 6.00 Build 0)  -->
<!DOCTYPE svg PUBLIC "-//W3C//DTD SVG 1.1//EN" "http://www.w3.org/Graphics/SVG/1.1/DTD/svg11.dtd">
<svg version="1.1" id="Layer_1" xmlns="http://www.w3.org/2000/svg" xmlns:xlink="http://www.w3.org/1999/xlink" x="0px" y="0px"
	 width="627.105px" height="122.511px" viewBox="0 0 627.105 122.511" enable-background="new 0 0 627.105 122.511"
	 xml:space="preserve">
<g>
	<g>
		<path fill="#282829" d="M97.057,10.84v31.878c0,2.787-2.216,5.06-4.978,5.164V10.84h-8.778v37.042
			c-2.762-0.104-4.978-2.377-4.978-5.164V10.84h-8.778v31.878c0,7.628,6.153,13.842,13.756,13.947v55.006h8.778V56.665
			c7.603-0.105,13.756-6.319,13.756-13.947V10.84H97.057z"/>
		<path fill="#282829" d="M141.825,33.663c0-12.412-9.962-22.534-22.309-22.811c-0.086-0.005-0.172-0.013-0.259-0.013h-4.646
			v100.832h8.778V77.865l18.435-9.248V33.663z M133.047,63.2l-9.656,4.842V20.324c5.601,1.848,9.656,7.127,9.656,13.339V63.2z"/>
	</g>
	<polygon fill="#282829" points="163.316,0 150.279,0 193.334,61.256 150.28,122.511 163.316,122.511 206.37,61.256 	"/>
	<polygon fill="#282829" points="56.091,0 43.054,0 0,61.256 43.054,122.511 56.09,122.511 13.036,61.256 	"/>
	<g>
		<path fill="#282829" d="M256.818,95.126c-0.16,2.506-0.701,4.762-1.624,6.768s-2.159,3.715-3.708,5.127
			c-1.55,1.412-3.396,2.5-5.537,3.264c-2.142,0.764-4.512,1.145-7.109,1.145c-2.939,0-5.549-0.541-7.827-1.623
			c-2.279-1.082-4.193-2.598-5.742-4.545c-1.55-1.949-2.734-4.291-3.555-7.025s-1.23-5.742-1.23-9.023v-6.699
			c0-3.303,0.433-6.322,1.299-9.057c0.866-2.734,2.096-5.082,3.691-7.041c1.595-1.96,3.526-3.481,5.793-4.563
			c2.267-1.082,4.813-1.624,7.639-1.624c2.734,0,5.167,0.388,7.297,1.162c2.13,0.775,3.948,1.88,5.452,3.315
			c1.504,1.436,2.688,3.19,3.555,5.264c0.866,2.073,1.413,4.408,1.641,7.006h-9.57c-0.091-1.48-0.313-2.779-0.667-3.896
			c-0.354-1.115-0.866-2.045-1.538-2.785c-0.672-0.74-1.516-1.299-2.529-1.675c-1.014-0.376-2.228-0.563-3.64-0.563
			c-1.481,0-2.769,0.318-3.862,0.957c-1.094,0.638-2,1.572-2.717,2.803s-1.248,2.74-1.589,4.528
			c-0.342,1.789-0.513,3.823-0.513,6.101v6.768c0,4.9,0.689,8.523,2.068,10.869c1.378,2.348,3.56,3.521,6.545,3.521
			c2.506,0,4.489-0.666,5.947-2c1.458-1.332,2.267-3.492,2.427-6.477H256.818z"/>
		<path fill="#282829" d="M298.996,89.486c0,3.191-0.422,6.131-1.265,8.818c-0.843,2.689-2.062,5.002-3.657,6.939
			c-1.595,1.938-3.538,3.447-5.828,4.529c-2.29,1.08-4.871,1.623-7.742,1.623s-5.423-0.543-7.656-1.623
			c-2.233-1.082-4.113-2.598-5.64-4.547c-1.527-1.947-2.689-4.26-3.486-6.938c-0.798-2.678-1.196-5.611-1.196-8.803V82.24
			c0-3.189,0.398-6.129,1.196-8.818c0.797-2.688,1.959-5.007,3.486-6.955c1.526-1.948,3.401-3.469,5.623-4.563
			s4.768-1.641,7.639-1.641c2.894,0,5.486,0.547,7.776,1.641s4.232,2.615,5.828,4.563c1.595,1.948,2.814,4.268,3.657,6.955
			c0.843,2.689,1.265,5.629,1.265,8.818V89.486z M289.254,82.171c0-2.027-0.166-3.896-0.496-5.605
			c-0.331-1.709-0.849-3.178-1.555-4.408c-0.707-1.23-1.612-2.193-2.717-2.889c-1.105-0.695-2.444-1.043-4.016-1.043
			c-1.55,0-2.849,0.348-3.896,1.043c-1.048,0.695-1.892,1.658-2.529,2.889c-0.638,1.23-1.094,2.699-1.367,4.408
			s-0.41,3.578-0.41,5.605v7.314c0,2.006,0.137,3.863,0.41,5.572s0.729,3.189,1.367,4.443c0.638,1.254,1.481,2.232,2.529,2.939
			c1.048,0.707,2.358,1.059,3.931,1.059c1.549,0,2.876-0.352,3.982-1.059c1.105-0.707,2.005-1.68,2.7-2.922
			c0.695-1.242,1.213-2.719,1.555-4.428s0.513-3.576,0.513-5.605V82.171z"/>
		<path fill="#282829" d="M318.068,60.946l4.717,18.696l5.366-18.696h11.929v49.766h-8.819V95.98l0.41-23.275l-6.528,21.602h-4.751
			l-5.845-20.68l0.41,22.354v14.732h-8.818V60.946H318.068z"/>
		<path fill="#282829" d="M378.908,88.906h-20.439v14.047h23.891v7.76H348.83V60.946h33.428v7.827h-23.789v12.545h20.439V88.906z"/>
		<path fill="#282829" d="M407.277,104.902c1.002,0,1.977-0.16,2.922-0.479s1.783-0.764,2.512-1.334
			c0.729-0.568,1.305-1.24,1.727-2.016s0.621-1.617,0.598-2.529h7.725c0.023,1.777-0.381,3.447-1.213,5.008
			s-1.961,2.922-3.383,4.084c-1.426,1.162-3.072,2.084-4.939,2.768c-1.869,0.684-3.828,1.025-5.879,1.025
			c-2.85,0-5.344-0.49-7.486-1.469c-2.143-0.98-3.93-2.318-5.365-4.016s-2.512-3.67-3.23-5.914c-0.717-2.244-1.076-4.631-1.076-7.16
			v-1.23c0-2.529,0.359-4.922,1.076-7.178c0.719-2.256,1.795-4.227,3.23-5.914c1.436-1.686,3.223-3.024,5.365-4.016
			s4.625-1.486,7.451-1.486c2.232,0,4.301,0.342,6.205,1.025c1.9,0.684,3.541,1.641,4.922,2.871c1.377,1.23,2.447,2.699,3.213,4.408
			c0.762,1.709,1.133,3.578,1.109,5.605h-7.725c0.023-1.002-0.152-1.947-0.529-2.836c-0.375-0.889-0.918-1.664-1.623-2.324
			c-0.707-0.661-1.539-1.186-2.496-1.572c-0.957-0.388-2.006-0.582-3.145-0.582c-1.709,0-3.133,0.348-4.271,1.043
			c-1.141,0.695-2.051,1.606-2.734,2.734s-1.168,2.41-1.453,3.846s-0.428,2.894-0.428,4.375v1.23c0,1.504,0.143,2.973,0.428,4.408
			s0.77,2.719,1.453,3.846c0.684,1.129,1.594,2.039,2.734,2.734C404.109,104.554,405.545,104.902,407.277,104.902z"/>
		<path fill="#282829" d="M431.613,91.878c0-2.666,0.393-5.148,1.178-7.451c0.787-2.301,1.914-4.295,3.385-5.98
			c1.469-1.687,3.264-3.008,5.383-3.965s4.523-1.436,7.213-1.436c2.711,0,5.131,0.479,7.262,1.436s3.932,2.278,5.4,3.965
			c1.471,1.686,2.592,3.68,3.367,5.98c0.775,2.303,1.162,4.785,1.162,7.451v0.719c0,2.689-0.387,5.184-1.162,7.484
			c-0.775,2.303-1.896,4.291-3.367,5.965c-1.469,1.676-3.264,2.99-5.383,3.947s-4.523,1.436-7.211,1.436
			c-2.713,0-5.133-0.479-7.264-1.436s-3.932-2.271-5.4-3.947c-1.471-1.674-2.598-3.662-3.385-5.965
			c-0.785-2.301-1.178-4.795-1.178-7.484V91.878z M439.781,92.597c0,1.686,0.176,3.27,0.529,4.75c0.354,1.482,0.9,2.787,1.641,3.914
			c0.74,1.129,1.682,2.018,2.82,2.666c1.139,0.65,2.496,0.975,4.068,0.975c1.525,0,2.854-0.324,3.98-0.975
			c1.129-0.648,2.062-1.537,2.803-2.666c0.74-1.127,1.287-2.432,1.641-3.914c0.354-1.48,0.531-3.064,0.531-4.75v-0.719
			c0-1.641-0.178-3.201-0.531-4.682c-0.354-1.481-0.9-2.78-1.641-3.896c-0.74-1.117-1.674-2.006-2.803-2.666
			c-1.127-0.661-2.477-0.992-4.049-0.992c-1.551,0-2.895,0.331-4.033,0.992c-1.141,0.66-2.074,1.549-2.803,2.666
			c-0.73,1.116-1.271,2.415-1.625,3.896c-0.354,1.48-0.529,3.041-0.529,4.682V92.597z"/>
		<path fill="#282829" d="M474.029,91.947c0-2.803,0.342-5.365,1.025-7.689s1.664-4.318,2.939-5.982
			c1.275-1.662,2.82-2.95,4.633-3.861c1.811-0.912,3.844-1.367,6.1-1.367c2.027,0,3.816,0.348,5.367,1.042
			c1.549,0.695,2.904,1.692,4.066,2.991V58.212h8.203v52.5h-7.416l-0.41-3.76c-1.162,1.436-2.559,2.535-4.188,3.299
			c-1.629,0.762-3.527,1.145-5.691,1.145c-2.232,0-4.25-0.475-6.049-1.418c-1.801-0.945-3.332-2.25-4.598-3.914
			c-1.264-1.664-2.244-3.641-2.939-5.93c-0.695-2.291-1.043-4.779-1.043-7.469V91.947z M482.199,92.666
			c0,1.664,0.158,3.225,0.479,4.682c0.318,1.459,0.824,2.734,1.521,3.828c0.693,1.094,1.582,1.955,2.666,2.582
			c1.08,0.627,2.375,0.939,3.879,0.939c1.867,0,3.395-0.404,4.58-1.213c1.184-0.809,2.129-1.898,2.836-3.266V84.154
			c-0.707-1.344-1.656-2.414-2.854-3.213c-1.195-0.797-2.695-1.195-4.494-1.195c-1.527,0-2.832,0.318-3.914,0.957
			c-1.082,0.638-1.971,1.516-2.666,2.631c-0.695,1.117-1.209,2.416-1.537,3.896c-0.332,1.482-0.496,3.055-0.496,4.717V92.666z"/>
		<path fill="#282829" d="M534.357,111.396c-2.734,0-5.23-0.457-7.486-1.367c-2.256-0.912-4.188-2.164-5.793-3.76
			c-1.607-1.596-2.854-3.48-3.742-5.656s-1.334-4.529-1.334-7.059v-1.402c0-2.939,0.473-5.582,1.418-7.93
			c0.945-2.346,2.211-4.352,3.795-6.016c1.584-1.662,3.43-2.939,5.537-3.828s4.324-1.332,6.648-1.332
			c2.688,0,5.059,0.449,7.109,1.35s3.764,2.165,5.143,3.794c1.379,1.63,2.422,3.561,3.129,5.794
			c0.705,2.232,1.059,4.682,1.059,7.348v3.453h-25.635c0.137,1.436,0.49,2.768,1.061,3.998c0.568,1.23,1.314,2.297,2.238,3.197
			c0.922,0.9,2.004,1.605,3.246,2.119c1.242,0.512,2.604,0.768,4.086,0.768c2.072,0,3.98-0.41,5.725-1.23
			c1.742-0.82,3.162-1.947,4.256-3.383l4.443,4.17c-0.594,0.889-1.357,1.748-2.291,2.58s-2.027,1.572-3.281,2.223
			c-1.254,0.648-2.66,1.174-4.221,1.572C537.906,111.195,536.203,111.396,534.357,111.396z M533.365,79.642
			c-1.139,0-2.199,0.205-3.178,0.615c-0.98,0.41-1.857,1.009-2.633,1.795s-1.43,1.743-1.965,2.871s-0.918,2.41-1.145,3.846h17.328
			v-0.615c-0.068-1.094-0.279-2.148-0.633-3.162s-0.871-1.92-1.555-2.717c-0.684-0.798-1.543-1.436-2.58-1.914
			S534.756,79.642,533.365,79.642z"/>
		<path fill="#282829" d="M581.033,73.046c0.66,0,1.32,0.022,1.982,0.068c0.66,0.045,1.293,0.113,1.896,0.205
			c0.604,0.091,1.156,0.188,1.658,0.29c0.5,0.103,0.922,0.222,1.264,0.358l-1.162,8.033c-2.506-0.57-4.979-0.855-7.416-0.855
			c-2.734,0-4.939,0.57-6.613,1.709c-1.676,1.141-2.912,2.724-3.709,4.752v23.105h-8.17V73.73h7.656l0.377,5.775
			c1.504-2.004,3.285-3.582,5.35-4.733C576.207,73.622,578.504,73.046,581.033,73.046z"/>
		<path fill="#282829" d="M618.24,100.697c0-0.615-0.125-1.178-0.375-1.691c-0.252-0.512-0.701-0.979-1.352-1.4
			c-0.648-0.422-1.537-0.814-2.666-1.18c-1.127-0.365-2.568-0.719-4.322-1.061c-2.188-0.455-4.166-1.002-5.932-1.641
			c-1.766-0.637-3.281-1.4-4.545-2.289c-1.266-0.889-2.238-1.92-2.922-3.094s-1.025-2.535-1.025-4.084
			c0-1.504,0.352-2.934,1.059-4.29c0.707-1.355,1.715-2.546,3.025-3.571s2.904-1.84,4.785-2.444
			c1.879-0.604,3.982-0.905,6.307-0.905c2.461,0,4.664,0.307,6.613,0.922c1.947,0.615,3.594,1.453,4.939,2.513
			c1.344,1.06,2.375,2.308,3.092,3.743c0.719,1.436,1.078,2.973,1.078,4.613h-8.17c0-0.729-0.16-1.43-0.479-2.102
			s-0.797-1.27-1.436-1.795c-0.639-0.523-1.43-0.939-2.375-1.247s-2.033-0.462-3.264-0.462s-2.297,0.132-3.197,0.394
			c-0.9,0.263-1.646,0.604-2.238,1.025c-0.592,0.422-1.031,0.917-1.316,1.487c-0.285,0.569-0.426,1.162-0.426,1.777
			s0.107,1.174,0.324,1.674c0.217,0.502,0.621,0.957,1.213,1.367s1.412,0.781,2.461,1.111s2.404,0.645,4.068,0.939
			c2.324,0.41,4.414,0.924,6.271,1.539s3.439,1.367,4.75,2.256s2.318,1.943,3.025,3.162s1.061,2.648,1.061,4.289
			s-0.377,3.145-1.129,4.512s-1.822,2.547-3.213,3.537c-1.391,0.992-3.059,1.76-5.008,2.307c-1.947,0.547-4.129,0.82-6.545,0.82
			c-2.689,0-5.059-0.357-7.109-1.076c-2.051-0.717-3.771-1.658-5.16-2.82c-1.391-1.162-2.445-2.482-3.162-3.965
			c-0.719-1.48-1.076-2.984-1.076-4.512h7.93c0.068,1.141,0.363,2.109,0.889,2.906c0.523,0.797,1.195,1.441,2.016,1.932
			s1.732,0.842,2.734,1.059s2.018,0.324,3.043,0.324c2.529,0,4.453-0.426,5.775-1.281C617.58,103.142,618.24,102.042,618.24,100.697
			z"/>
	</g>
</g>
</svg>
