<?xml version="1.0" encoding="utf-8"?>
<!-- Generator: Adobe Illustrator 16.0.0, SVG Export Plug-In . SVG Version: 6.00 Build 0)  -->
<!DOCTYPE svg PUBLIC "-//W3C//DTD SVG 1.1//EN" "http://www.w3.org/Graphics/SVG/1.1/DTD/svg11.dtd">
<svg version="1.1" id="Layer_1" xmlns="http://www.w3.org/2000/svg" xmlns:xlink="http://www.w3.org/1999/xlink" x="0px" y="0px"
	 width="417.38px" height="289.328px" viewBox="2.778 0 417.38 289.328" enable-background="new 2.778 0 417.38 289.328"
	 xml:space="preserve">
<g>
	<g>
		<g>
			<g>
				<path fill="#282829" d="M200.139,18.092v53.207c0,4.651-3.801,8.444-8.537,8.618V18.092h-15.058v61.825
					c-4.736-0.174-8.538-3.967-8.538-8.618V18.092H152.95v53.207c0,12.73,10.555,23.102,23.595,23.278v91.809h15.058V94.577
					c13.04-0.176,23.595-10.547,23.595-23.278V18.092H200.139z"/>
			</g>
			<g>
				<path fill="#282829" d="M276.926,56.186c0-20.716-17.086-37.611-38.264-38.071c-0.147-0.009-0.294-0.021-0.443-0.021h-7.969
					v168.293h15.057V129.96l31.619-15.433V56.186z M261.87,105.484l-16.562,8.084V33.922c9.607,3.084,16.562,11.896,16.562,22.263
					V105.484z"/>
			</g>
		</g>
		<g>
			<polygon fill="#282829" points="312.797,0 291.039,0 362.898,102.239 291.039,204.478 312.797,204.478 384.656,102.239 			"/>
		</g>
		<g>
			<polygon fill="#282829" points="133.832,0 112.073,0 40.214,102.239 112.073,204.478 133.832,204.478 61.973,102.239 			"/>
		</g>
	</g>
	<g enable-background="new    ">
		<path fill="#282829" d="M40.148,272.558c-0.164,2.578-0.721,4.898-1.67,6.961s-2.221,3.82-3.813,5.273
			c-1.595,1.453-3.493,2.571-5.695,3.356c-2.203,0.785-4.641,1.179-7.312,1.179c-3.023,0-5.708-0.558-8.052-1.67
			c-2.344-1.113-4.312-2.673-5.905-4.677c-1.595-2.004-2.812-4.412-3.656-7.226c-0.844-2.812-1.267-5.905-1.267-9.28v-6.892
			c0-3.397,0.445-6.504,1.336-9.315c0.892-2.812,2.156-5.228,3.798-7.242c1.64-2.016,3.626-3.58,5.959-4.692
			c2.332-1.113,4.95-1.67,7.856-1.67c2.812,0,5.314,0.397,7.506,1.194s4.062,1.935,5.607,3.41s2.765,3.28,3.656,5.414
			c0.891,2.133,1.453,4.535,1.688,7.207H30.34c-0.094-1.522-0.322-2.859-0.687-4.009c-0.363-1.147-0.891-2.104-1.582-2.864
			c-0.69-0.763-1.559-1.336-2.602-1.724c-1.043-0.387-2.291-0.58-3.744-0.58c-1.523,0-2.848,0.328-3.973,0.984
			s-2.058,1.617-2.795,2.883c-0.738,1.267-1.283,2.818-1.636,4.658c-0.352,1.84-0.526,3.932-0.526,6.275v6.961
			c0,5.039,0.708,8.766,2.127,11.18c1.418,2.414,3.662,3.621,6.731,3.621c2.578,0,4.617-0.686,6.117-2.057s2.332-3.592,2.496-6.662
			h9.88V272.558z"/>
		<path fill="#282829" d="M83.531,266.757c0,3.281-0.434,6.305-1.301,9.07s-2.122,5.145-3.762,7.137
			c-1.641,1.992-3.639,3.545-5.994,4.658c-2.354,1.112-5.01,1.67-7.963,1.67s-5.578-0.558-7.875-1.67
			c-2.297-1.113-4.231-2.672-5.801-4.677c-1.57-2.004-2.767-4.383-3.586-7.137c-0.821-2.754-1.23-5.771-1.23-9.054v-7.452
			c0-3.281,0.41-6.306,1.23-9.07c0.819-2.767,2.016-5.149,3.586-7.153c1.569-2.005,3.498-3.568,5.783-4.693
			c2.284-1.125,4.903-1.688,7.856-1.688c2.977,0,5.644,0.562,7.998,1.688c2.355,1.126,4.354,2.688,5.994,4.693
			c1.64,2.004,2.895,4.389,3.762,7.153c0.867,2.767,1.301,5.789,1.301,9.07L83.531,266.757L83.531,266.757z M73.511,259.234
			c0-2.086-0.17-4.008-0.51-5.766s-0.874-3.271-1.601-4.535c-0.727-1.266-1.657-2.256-2.795-2.971
			c-1.137-0.715-2.514-1.072-4.131-1.072c-1.594,0-2.93,0.357-4.008,1.072s-1.946,1.705-2.602,2.971
			c-0.656,1.266-1.125,2.777-1.406,4.535s-0.422,3.68-0.422,5.766v7.523c0,2.062,0.141,3.973,0.422,5.729s0.75,3.281,1.406,4.57
			c0.655,1.289,1.522,2.297,2.602,3.022c1.078,0.728,2.426,1.09,4.043,1.09c1.594,0,2.958-0.362,4.096-1.09
			c1.138-0.727,2.062-1.729,2.777-3.006s1.248-2.795,1.6-4.553c0.353-1.758,0.527-3.68,0.527-5.766L73.511,259.234L73.511,259.234z"
			/>
		<path fill="#282829" d="M103.148,237.402l4.853,19.23l5.52-19.23h12.271v51.188h-9.07v-15.151l0.422-23.94l-6.715,22.219h-4.887
			l-6.013-21.271l0.423,22.992v15.151h-9.07v-51.188H103.148z"/>
		<path fill="#282829" d="M165.726,266.16h-21.022v14.449h24.573v7.98h-34.487v-51.188h34.383v8.052h-24.469v12.901h21.022V266.16z"
			/>
	</g>
	<g enable-background="new    ">
		<path fill="#282829" d="M194.906,282.613c1.031,0,2.033-0.164,3.007-0.492c0.972-0.328,1.833-0.785,2.584-1.371
			c0.75-0.586,1.341-1.276,1.774-2.074c0.435-0.797,0.639-1.663,0.615-2.602h7.946c0.021,1.828-0.394,3.545-1.249,5.15
			c-0.856,1.605-2.017,3.006-3.48,4.201c-1.465,1.195-3.159,2.145-5.08,2.848c-1.922,0.703-3.938,1.055-6.047,1.055
			c-2.93,0-5.497-0.504-7.699-1.512s-4.043-2.385-5.52-4.131c-1.478-1.746-2.584-3.773-3.322-6.082s-1.106-4.764-1.106-7.365v-1.266
			c0-2.602,0.368-5.062,1.106-7.383c0.738-2.321,1.846-4.348,3.322-6.082c1.476-1.734,3.315-3.111,5.52-4.131
			c2.203-1.021,4.759-1.529,7.664-1.529c2.297,0,4.425,0.352,6.381,1.055c1.957,0.703,3.645,1.688,5.062,2.953
			s2.519,2.777,3.305,4.535c0.785,1.758,1.166,3.68,1.144,5.766h-7.946c0.023-1.031-0.158-2.004-0.545-2.918
			s-0.944-1.711-1.67-2.391c-0.728-0.68-1.582-1.219-2.566-1.617c-0.983-0.398-2.062-0.598-3.233-0.598
			c-1.759,0-3.224,0.356-4.396,1.072c-1.172,0.715-2.108,1.651-2.812,2.812c-0.703,1.159-1.201,2.479-1.494,3.955
			c-0.293,1.477-0.439,2.977-0.439,4.5v1.266c0,1.548,0.146,3.06,0.439,4.535c0.293,1.478,0.791,2.795,1.494,3.955
			c0.703,1.159,1.64,2.098,2.812,2.812C191.648,282.255,193.125,282.613,194.906,282.613z"/>
		<path fill="#282829" d="M219.938,269.218c0-2.742,0.404-5.297,1.213-7.664c0.81-2.367,1.97-4.418,3.48-6.152
			s3.356-3.094,5.537-4.078c2.18-0.984,4.651-1.477,7.418-1.477c2.789,0,5.277,0.492,7.471,1.477
			c2.191,0.984,4.043,2.344,5.555,4.078c1.513,1.734,2.666,3.785,3.464,6.152c0.796,2.367,1.194,4.922,1.194,7.664v0.738
			c0,2.766-0.398,5.332-1.194,7.698c-0.798,2.367-1.951,4.412-3.464,6.136c-1.512,1.723-3.356,3.076-5.536,4.061
			c-2.181,0.984-4.653,1.477-7.419,1.477c-2.789,0-5.278-0.492-7.471-1.477c-2.191-0.984-4.043-2.338-5.555-4.061
			c-1.512-1.724-2.672-3.769-3.48-6.136c-0.808-2.366-1.213-4.934-1.213-7.698V269.218z M228.34,269.957
			c0,1.734,0.181,3.363,0.545,4.888c0.363,1.522,0.926,2.864,1.688,4.024s1.729,2.074,2.9,2.742s2.566,1.002,4.184,1.002
			c1.569,0,2.937-0.334,4.097-1.002s2.121-1.582,2.883-2.742c0.761-1.16,1.323-2.502,1.688-4.024
			c0.363-1.523,0.546-3.152,0.546-4.888v-0.737c0-1.688-0.183-3.294-0.546-4.816s-0.927-2.858-1.688-4.008
			c-0.762-1.147-1.723-2.062-2.883-2.742c-1.16-0.68-2.549-1.021-4.166-1.021c-1.595,0-2.978,0.341-4.148,1.021
			c-1.173,0.681-2.133,1.595-2.883,2.742c-0.751,1.147-1.307,2.483-1.67,4.008c-0.364,1.522-0.545,3.129-0.545,4.816L228.34,269.957
			L228.34,269.957z"/>
		<path fill="#282829" d="M263.567,269.289c0-2.883,0.353-5.52,1.056-7.91c0.703-2.39,1.71-4.44,3.022-6.151s2.9-3.035,4.765-3.974
			c1.863-0.938,3.954-1.405,6.274-1.405c2.086,0,3.925,0.356,5.521,1.071c1.594,0.716,2.987,1.74,4.184,3.076v-19.406h8.438v54
			h-7.63l-0.422-3.866c-1.194,1.478-2.632,2.606-4.307,3.394c-1.676,0.784-3.627,1.178-5.854,1.178
			c-2.298,0-4.372-0.486-6.223-1.459c-1.852-0.974-3.428-2.314-4.729-4.025c-1.302-1.711-2.31-3.744-3.023-6.1
			c-0.716-2.355-1.072-4.916-1.072-7.683V269.289L263.567,269.289z M271.969,270.027c0,1.711,0.163,3.316,0.492,4.816
			c0.328,1.5,0.849,2.812,1.563,3.938c0.715,1.125,1.629,2.01,2.742,2.654c1.112,0.645,2.443,0.967,3.99,0.967
			c1.921,0,3.492-0.416,4.711-1.248c1.218-0.832,2.191-1.951,2.918-3.357v-16.522c-0.727-1.383-1.705-2.483-2.936-3.305
			c-1.231-0.821-2.772-1.23-4.623-1.23c-1.57,0-2.913,0.328-4.025,0.984c-1.113,0.655-2.027,1.56-2.742,2.707
			c-0.716,1.147-1.243,2.483-1.582,4.008c-0.34,1.522-0.51,3.142-0.51,4.853L271.969,270.027L271.969,270.027z"/>
	</g>
	<g enable-background="new    ">
		<path fill="#282829" d="M325.617,289.292c-2.812,0-5.38-0.47-7.699-1.406c-2.32-0.938-4.308-2.227-5.959-3.867
			c-1.652-1.641-2.937-3.58-3.851-5.818s-1.371-4.658-1.371-7.26V269.5c0-3.022,0.486-5.742,1.459-8.155
			c0.974-2.414,2.273-4.478,3.902-6.188s3.527-3.023,5.695-3.938c2.168-0.915,4.447-1.371,6.838-1.371
			c2.766,0,5.203,0.463,7.312,1.389c2.109,0.926,3.873,2.227,5.291,3.902c1.418,1.675,2.49,3.662,3.218,5.959
			c0.727,2.297,1.09,4.816,1.09,7.559v3.551h-26.367c0.141,1.478,0.504,2.849,1.09,4.113c0.586,1.266,1.354,2.361,2.303,3.287
			c0.949,0.926,2.062,1.652,3.341,2.18c1.277,0.528,2.678,0.791,4.2,0.791c2.134,0,4.097-0.422,5.89-1.266s3.252-2.004,4.377-3.48
			l4.569,4.289c-0.608,0.914-1.395,1.799-2.354,2.654s-2.086,1.617-3.375,2.285s-2.736,1.207-4.342,1.617
			C329.267,289.087,327.516,289.292,325.617,289.292z M324.598,256.632c-1.172,0-2.262,0.211-3.27,0.633
			c-1.009,0.422-1.91,1.037-2.707,1.846s-1.472,1.793-2.021,2.953s-0.942,2.479-1.178,3.955h17.824v-0.633
			c-0.07-1.125-0.287-2.209-0.65-3.252s-0.896-1.975-1.6-2.795s-1.588-1.478-2.654-1.969
			C327.276,256.878,326.028,256.632,324.598,256.632z"/>
		<path fill="#282829" d="M374.276,249.847c0.681,0,1.358,0.023,2.039,0.07s1.33,0.117,1.951,0.211
			c0.62,0.094,1.189,0.192,1.705,0.299c0.515,0.104,0.949,0.229,1.301,0.369l-1.194,8.262c-2.579-0.586-5.121-0.879-7.63-0.879
			c-2.812,0-5.079,0.586-6.803,1.758c-1.723,1.172-2.994,2.801-3.813,4.887v23.766h-8.402V250.55h7.875l0.387,5.941
			c1.547-2.062,3.38-3.687,5.502-4.869C369.313,250.439,371.674,249.847,374.276,249.847z"/>
	</g>
	<g enable-background="new    ">
		<path fill="#282829" d="M411.897,278.289c0-0.633-0.129-1.213-0.387-1.74c-0.258-0.526-0.722-1.008-1.39-1.44
			s-1.582-0.838-2.741-1.213c-1.16-0.375-2.644-0.738-4.447-1.09c-2.25-0.47-4.283-1.031-6.101-1.688
			c-1.816-0.656-3.374-1.441-4.676-2.354c-1.301-0.914-2.303-1.976-3.006-3.183s-1.055-2.606-1.055-4.201
			c0-1.547,0.363-3.018,1.09-4.412c0.728-1.393,1.765-2.618,3.111-3.674c1.347-1.055,2.988-1.893,4.922-2.514
			s4.096-0.932,6.485-0.932c2.531,0,4.8,0.316,6.804,0.949s3.696,1.494,5.08,2.584c1.383,1.09,2.442,2.373,3.182,3.85
			s1.106,3.059,1.106,4.746h-8.401c0-0.75-0.164-1.471-0.492-2.162s-0.82-1.307-1.477-1.846c-0.657-0.539-1.472-0.967-2.443-1.283
			s-2.092-0.475-3.357-0.475c-1.265,0-2.36,0.135-3.286,0.403c-0.927,0.269-1.693,0.621-2.304,1.056
			c-0.609,0.434-1.061,0.942-1.354,1.528c-0.293,0.587-0.439,1.195-0.439,1.828c0,0.634,0.111,1.207,0.334,1.724
			c0.224,0.516,0.64,0.983,1.248,1.405c0.609,0.423,1.453,0.804,2.531,1.144s2.473,0.662,4.184,0.967
			c2.392,0.422,4.541,0.949,6.451,1.582s3.539,1.406,4.887,2.32c1.349,0.914,2.386,1.998,3.111,3.252s1.09,2.725,1.09,4.412
			c0,1.687-0.387,3.233-1.16,4.641c-0.772,1.406-1.875,2.619-3.305,3.639s-3.146,1.811-5.149,2.373
			c-2.005,0.562-4.248,0.844-6.732,0.844c-2.766,0-5.203-0.369-7.312-1.106c-2.108-0.738-3.878-1.705-5.309-2.9
			c-1.43-1.194-2.514-2.555-3.252-4.077c-0.738-1.523-1.106-3.07-1.106-4.642h8.155c0.07,1.172,0.375,2.168,0.914,2.987
			c0.539,0.82,1.23,1.482,2.074,1.986s1.781,0.867,2.812,1.09c1.031,0.224,2.074,0.334,3.129,0.334c2.603,0,4.582-0.438,5.941-1.317
			S411.897,279.671,411.897,278.289z"/>
	</g>
</g>
</svg>
