<?xml version="1.0" encoding="utf-8"?>
<!-- Generator: Adobe Illustrator 16.0.0, SVG Export Plug-In . SVG Version: 6.00 Build 0)  -->
<!DOCTYPE svg PUBLIC "-//W3C//DTD SVG 1.1//EN" "http://www.w3.org/Graphics/SVG/1.1/DTD/svg11.dtd">
<svg version="1.1" id="Layer_1" xmlns="http://www.w3.org/2000/svg" xmlns:xlink="http://www.w3.org/1999/xlink" x="0px" y="0px"
	 width="627.105px" height="122.512px" viewBox="0 0 627.105 122.512" enable-background="new 0 0 627.105 122.512"
	 xml:space="preserve">
<g>
	<g>
		<path fill="#F2F2F2" d="M97.057,10.84v31.879c0,2.786-2.217,5.06-4.979,5.163V10.84h-8.778v37.042
			c-2.762-0.104-4.978-2.377-4.978-5.163V10.84h-8.778v31.879c0,7.628,6.153,13.842,13.756,13.946v55.006h8.778V56.665
			c7.604-0.104,13.756-6.318,13.756-13.946V10.84H97.057z"/>
		<path fill="#F2F2F2" d="M141.825,33.663c0-12.412-9.962-22.534-22.309-22.811c-0.086-0.005-0.172-0.014-0.26-0.014h-4.646v100.832
			h8.778V77.865l18.435-9.248L141.825,33.663L141.825,33.663z M133.047,63.2l-9.655,4.842V20.324
			c5.601,1.848,9.655,7.127,9.655,13.339V63.2z"/>
	</g>
	<polygon fill="#F2F2F2" points="163.316,0 150.279,0 193.334,61.256 150.28,122.511 163.316,122.511 206.37,61.256 	"/>
	<polygon fill="#F2F2F2" points="56.091,0 43.054,0 0,61.256 43.054,122.511 56.09,122.511 13.036,61.256 	"/>
	<g>
		<path fill="#F2F2F2" d="M256.818,95.126c-0.16,2.506-0.701,4.763-1.624,6.769s-2.159,3.715-3.708,5.127
			c-1.55,1.412-3.396,2.5-5.537,3.264c-2.142,0.764-4.512,1.146-7.109,1.146c-2.938,0-5.549-0.541-7.826-1.623
			c-2.279-1.082-4.193-2.599-5.742-4.545c-1.55-1.949-2.734-4.291-3.556-7.025c-0.82-2.734-1.229-5.742-1.229-9.023v-6.698
			c0-3.304,0.433-6.322,1.299-9.058c0.866-2.733,2.096-5.082,3.691-7.041c1.595-1.96,3.525-3.48,5.793-4.562
			c2.267-1.082,4.812-1.624,7.639-1.624c2.734,0,5.167,0.388,7.297,1.162s3.948,1.88,5.452,3.314
			c1.504,1.437,2.688,3.19,3.555,5.265c0.866,2.072,1.413,4.407,1.642,7.006h-9.57c-0.091-1.48-0.312-2.779-0.667-3.896
			c-0.354-1.115-0.866-2.045-1.538-2.785c-0.672-0.739-1.516-1.299-2.529-1.675s-2.228-0.562-3.64-0.562
			c-1.48,0-2.769,0.317-3.862,0.957c-1.094,0.638-2,1.571-2.717,2.803c-0.717,1.23-1.248,2.74-1.589,4.528
			c-0.342,1.789-0.513,3.822-0.513,6.101v6.768c0,4.9,0.688,8.523,2.067,10.869c1.378,2.349,3.561,3.521,6.545,3.521
			c2.507,0,4.489-0.666,5.947-2c1.458-1.332,2.268-3.492,2.427-6.478h9.604V95.126z"/>
		<path fill="#F2F2F2" d="M298.996,89.486c0,3.191-0.422,6.131-1.265,8.818c-0.843,2.688-2.062,5.002-3.657,6.938
			c-1.595,1.938-3.538,3.447-5.828,4.529c-2.29,1.08-4.871,1.623-7.742,1.623s-5.423-0.543-7.655-1.623
			c-2.233-1.082-4.113-2.599-5.641-4.547c-1.526-1.947-2.688-4.261-3.485-6.938c-0.799-2.678-1.196-5.611-1.196-8.803V82.24
			c0-3.188,0.397-6.129,1.196-8.818c0.797-2.688,1.959-5.007,3.485-6.955c1.526-1.947,3.401-3.469,5.623-4.562
			s4.769-1.641,7.639-1.641c2.895,0,5.486,0.547,7.776,1.641s4.232,2.615,5.828,4.562c1.595,1.948,2.814,4.269,3.657,6.955
			c0.843,2.689,1.265,5.63,1.265,8.818V89.486L298.996,89.486z M289.254,82.171c0-2.026-0.166-3.896-0.496-5.604
			s-0.849-3.178-1.555-4.408c-0.707-1.229-1.612-2.193-2.717-2.889c-1.105-0.695-2.444-1.043-4.016-1.043
			c-1.551,0-2.85,0.348-3.896,1.043c-1.048,0.694-1.892,1.658-2.529,2.889s-1.094,2.699-1.366,4.408
			c-0.273,1.709-0.41,3.578-0.41,5.604v7.314c0,2.006,0.137,3.863,0.41,5.572c0.272,1.709,0.729,3.188,1.366,4.442
			c0.639,1.254,1.481,2.232,2.529,2.939s2.358,1.059,3.931,1.059c1.55,0,2.876-0.352,3.982-1.059c1.104-0.707,2.005-1.681,2.7-2.922
			c0.694-1.242,1.213-2.72,1.555-4.429s0.513-3.575,0.513-5.604L289.254,82.171L289.254,82.171z"/>
		<path fill="#F2F2F2" d="M318.068,60.946l4.717,18.696l5.366-18.696h11.929v49.766h-8.818V95.98l0.409-23.275l-6.527,21.603h-4.751
			l-5.846-20.681l0.41,22.354v14.731h-8.817V60.946H318.068z"/>
		<path fill="#F2F2F2" d="M378.908,88.906h-20.438v14.047h23.891v7.76h-33.53V60.946h33.428v7.827h-23.788v12.545h20.438V88.906z"/>
		<path fill="#F2F2F2" d="M407.277,104.902c1.002,0,1.978-0.16,2.922-0.479c0.945-0.318,1.783-0.764,2.513-1.334
			c0.729-0.567,1.305-1.239,1.727-2.016s0.621-1.617,0.598-2.529h7.726c0.022,1.777-0.381,3.447-1.213,5.009
			c-0.832,1.561-1.961,2.922-3.384,4.084c-1.426,1.161-3.071,2.084-4.938,2.768c-1.869,0.684-3.828,1.025-5.879,1.025
			c-2.851,0-5.344-0.49-7.486-1.47s-3.93-2.317-5.365-4.016c-1.435-1.698-2.512-3.67-3.229-5.914s-1.076-4.631-1.076-7.16V91.64
			c0-2.529,0.358-4.922,1.076-7.179c0.719-2.256,1.795-4.227,3.229-5.914c1.437-1.686,3.224-3.023,5.365-4.016
			c2.143-0.992,4.625-1.486,7.451-1.486c2.232,0,4.301,0.343,6.205,1.025c1.899,0.684,3.541,1.641,4.922,2.871
			c1.377,1.229,2.447,2.699,3.213,4.408c0.762,1.709,1.133,3.578,1.109,5.604h-7.726c0.023-1.002-0.151-1.947-0.528-2.836
			c-0.375-0.889-0.918-1.664-1.623-2.324c-0.707-0.66-1.539-1.186-2.496-1.571c-0.957-0.389-2.006-0.582-3.146-0.582
			c-1.709,0-3.133,0.348-4.271,1.043c-1.142,0.694-2.051,1.605-2.734,2.733c-0.683,1.128-1.168,2.41-1.453,3.847
			c-0.284,1.436-0.428,2.894-0.428,4.375v1.229c0,1.504,0.144,2.973,0.428,4.408c0.285,1.435,0.771,2.719,1.453,3.846
			c0.685,1.129,1.594,2.039,2.734,2.734C404.109,104.554,405.546,104.902,407.277,104.902z"/>
		<path fill="#F2F2F2" d="M431.613,91.878c0-2.666,0.394-5.147,1.179-7.45c0.786-2.302,1.913-4.296,3.385-5.98
			c1.469-1.687,3.264-3.008,5.383-3.965s4.523-1.437,7.213-1.437c2.711,0,5.131,0.479,7.262,1.437s3.933,2.278,5.4,3.965
			c1.471,1.686,2.592,3.68,3.367,5.98c0.774,2.303,1.162,4.784,1.162,7.45v0.72c0,2.688-0.388,5.184-1.162,7.483
			c-0.775,2.303-1.896,4.291-3.367,5.965c-1.469,1.677-3.264,2.99-5.383,3.947s-4.523,1.437-7.211,1.437
			c-2.713,0-5.133-0.479-7.265-1.437c-2.131-0.957-3.932-2.271-5.399-3.947c-1.472-1.674-2.599-3.662-3.385-5.965
			c-0.785-2.301-1.179-4.795-1.179-7.483V91.878z M439.781,92.597c0,1.686,0.176,3.27,0.529,4.75c0.354,1.481,0.9,2.786,1.641,3.914
			c0.74,1.129,1.683,2.018,2.82,2.666c1.139,0.649,2.496,0.975,4.068,0.975c1.524,0,2.854-0.324,3.979-0.975
			c1.129-0.648,2.062-1.537,2.803-2.666c0.74-1.128,1.287-2.433,1.642-3.914c0.354-1.48,0.531-3.064,0.531-4.75v-0.72
			c0-1.641-0.179-3.2-0.531-4.682c-0.354-1.481-0.9-2.78-1.642-3.896c-0.739-1.116-1.674-2.006-2.803-2.665
			c-1.127-0.661-2.477-0.992-4.049-0.992c-1.551,0-2.895,0.331-4.033,0.992c-1.141,0.659-2.074,1.549-2.803,2.665
			c-0.73,1.116-1.271,2.415-1.625,3.896c-0.354,1.48-0.529,3.041-0.529,4.682L439.781,92.597L439.781,92.597z"/>
		<path fill="#F2F2F2" d="M474.029,91.947c0-2.803,0.342-5.365,1.025-7.689c0.683-2.323,1.664-4.317,2.938-5.981
			c1.275-1.662,2.82-2.95,4.633-3.861c1.812-0.912,3.845-1.367,6.101-1.367c2.027,0,3.815,0.349,5.367,1.042
			c1.549,0.695,2.903,1.692,4.065,2.991V58.212h8.203v52.5h-7.416l-0.41-3.76c-1.162,1.437-2.559,2.535-4.188,3.299
			c-1.629,0.763-3.527,1.146-5.691,1.146c-2.231,0-4.25-0.476-6.049-1.418c-1.801-0.945-3.332-2.25-4.598-3.914
			c-1.265-1.664-2.244-3.642-2.939-5.931c-0.694-2.29-1.043-4.778-1.043-7.469L474.029,91.947L474.029,91.947z M482.199,92.666
			c0,1.664,0.158,3.226,0.479,4.683c0.317,1.459,0.824,2.733,1.521,3.827c0.693,1.095,1.582,1.955,2.666,2.582
			c1.08,0.628,2.375,0.939,3.879,0.939c1.867,0,3.396-0.404,4.58-1.213c1.185-0.81,2.129-1.898,2.836-3.266V84.154
			c-0.707-1.344-1.655-2.414-2.854-3.213c-1.195-0.797-2.695-1.195-4.494-1.195c-1.527,0-2.832,0.318-3.914,0.957
			c-1.082,0.638-1.971,1.517-2.666,2.631c-0.695,1.117-1.209,2.416-1.537,3.896c-0.332,1.481-0.496,3.055-0.496,4.717V92.666z"/>
		<path fill="#F2F2F2" d="M534.357,111.396c-2.734,0-5.229-0.457-7.486-1.367c-2.256-0.912-4.188-2.164-5.793-3.76
			c-1.606-1.597-2.854-3.48-3.741-5.656c-0.889-2.176-1.334-4.529-1.334-7.059v-1.402c0-2.939,0.473-5.582,1.418-7.93
			c0.944-2.347,2.211-4.353,3.795-6.017c1.584-1.662,3.43-2.938,5.537-3.828c2.106-0.889,4.323-1.332,6.647-1.332
			c2.688,0,5.06,0.449,7.109,1.351c2.05,0.9,3.764,2.165,5.143,3.794c1.379,1.63,2.422,3.561,3.129,5.794
			c0.705,2.231,1.06,4.682,1.06,7.348v3.453h-25.636c0.138,1.437,0.49,2.769,1.062,3.998c0.568,1.23,1.313,2.297,2.238,3.197
			c0.922,0.899,2.004,1.604,3.245,2.119c1.242,0.512,2.604,0.768,4.087,0.768c2.071,0,3.979-0.41,5.725-1.229
			c1.742-0.82,3.162-1.947,4.256-3.384l4.443,4.17c-0.595,0.89-1.357,1.748-2.291,2.58c-0.935,0.832-2.027,1.572-3.281,2.224
			c-1.254,0.647-2.66,1.174-4.221,1.571C537.906,111.195,536.203,111.396,534.357,111.396z M533.365,79.642
			c-1.139,0-2.198,0.205-3.178,0.614c-0.979,0.41-1.857,1.01-2.633,1.796c-0.776,0.785-1.431,1.742-1.965,2.87
			c-0.535,1.129-0.918,2.41-1.146,3.847h17.328v-0.615c-0.068-1.094-0.279-2.148-0.633-3.162c-0.354-1.014-0.871-1.92-1.555-2.717
			c-0.685-0.798-1.544-1.437-2.58-1.914C535.968,79.883,534.757,79.642,533.365,79.642z"/>
		<path fill="#F2F2F2" d="M581.033,73.046c0.66,0,1.32,0.022,1.982,0.068c0.66,0.045,1.293,0.113,1.896,0.205
			c0.604,0.091,1.156,0.188,1.658,0.29c0.5,0.103,0.922,0.222,1.264,0.357L586.672,82c-2.507-0.569-4.979-0.854-7.416-0.854
			c-2.734,0-4.939,0.569-6.613,1.709c-1.676,1.141-2.912,2.724-3.709,4.752v23.104h-8.17V73.73h7.656l0.377,5.774
			c1.504-2.004,3.284-3.582,5.35-4.732C576.207,73.622,578.505,73.046,581.033,73.046z"/>
		<path fill="#F2F2F2" d="M618.24,100.697c0-0.615-0.125-1.178-0.375-1.691c-0.252-0.512-0.701-0.979-1.352-1.399
			c-0.648-0.422-1.537-0.814-2.666-1.181c-1.127-0.364-2.568-0.719-4.322-1.061c-2.188-0.455-4.166-1.002-5.932-1.641
			c-1.767-0.638-3.281-1.4-4.545-2.289c-1.267-0.89-2.238-1.92-2.923-3.095c-0.684-1.174-1.024-2.534-1.024-4.084
			c0-1.504,0.352-2.934,1.059-4.29c0.707-1.354,1.716-2.546,3.025-3.57c1.31-1.025,2.904-1.84,4.785-2.444
			c1.879-0.604,3.981-0.905,6.307-0.905c2.461,0,4.664,0.308,6.613,0.923c1.947,0.614,3.594,1.452,4.938,2.513
			c1.345,1.06,2.375,2.308,3.093,3.743c0.719,1.436,1.077,2.973,1.077,4.612h-8.17c0-0.729-0.159-1.43-0.479-2.102
			s-0.797-1.271-1.437-1.795c-0.639-0.523-1.43-0.939-2.375-1.247c-0.944-0.308-2.032-0.462-3.264-0.462
			c-1.23,0-2.297,0.132-3.197,0.394c-0.899,0.264-1.646,0.604-2.237,1.025c-0.592,0.422-1.031,0.917-1.316,1.487
			c-0.285,0.568-0.426,1.161-0.426,1.776s0.106,1.174,0.324,1.674c0.217,0.502,0.621,0.957,1.213,1.367s1.412,0.781,2.461,1.111
			s2.404,0.645,4.067,0.938c2.324,0.41,4.414,0.925,6.271,1.539c1.856,0.615,3.438,1.367,4.75,2.256
			c1.311,0.89,2.318,1.943,3.025,3.162c0.707,1.22,1.061,2.648,1.061,4.289c0,1.642-0.377,3.146-1.129,4.513
			c-0.752,1.366-1.822,2.547-3.213,3.536c-1.392,0.992-3.06,1.761-5.008,2.308c-1.947,0.547-4.13,0.82-6.546,0.82
			c-2.688,0-5.059-0.357-7.108-1.076c-2.051-0.717-3.771-1.658-5.16-2.82c-1.391-1.162-2.445-2.482-3.162-3.965
			c-0.719-1.48-1.076-2.984-1.076-4.512h7.931c0.067,1.141,0.362,2.108,0.889,2.905c0.523,0.797,1.195,1.441,2.016,1.933
			c0.821,0.49,1.732,0.842,2.734,1.059s2.018,0.324,3.043,0.324c2.529,0,4.453-0.426,5.775-1.281
			C617.58,103.142,618.24,102.042,618.24,100.697z"/>
	</g>
</g>
</svg>
