<?xml version="1.0" encoding="utf-8"?>
<!-- Generator: Adobe Illustrator 16.0.0, SVG Export Plug-In . SVG Version: 6.00 Build 0)  -->
<!DOCTYPE svg PUBLIC "-//W3C//DTD SVG 1.1//EN" "http://www.w3.org/Graphics/SVG/1.1/DTD/svg11.dtd">
<svg version="1.1" id="Layer_1" xmlns="http://www.w3.org/2000/svg" xmlns:xlink="http://www.w3.org/1999/xlink" x="0px" y="0px"
	 width="100px" height="100px" viewBox="0 0 100 100" enable-background="new 0 0 100 100" xml:space="preserve">
<path fill="#1A1A1A" d="M50.002,0.048c-27.565,0-49.91,22.369-49.91,49.955s22.345,49.948,49.91,49.948
	c27.562,0,49.906-22.361,49.906-49.948C99.908,22.417,77.562,0.048,50.002,0.048z M75.141,39.932
	c0.026,0.539,0.039,1.08,0.039,1.627c0,16.638-12.652,35.818-35.786,35.818c-7.103,0-13.715-2.084-19.28-5.656
	c0.983,0.117,1.982,0.174,2.998,0.174c5.895,0,11.318-2.01,15.621-5.385c-5.503-0.104-10.146-3.746-11.748-8.746
	c0.767,0.15,1.555,0.225,2.366,0.225c1.148,0,2.258-0.149,3.313-0.438c-5.756-1.155-10.091-6.25-10.091-12.34
	c0-0.054,0-0.107,0.002-0.165c1.693,0.944,3.634,1.512,5.696,1.577c-3.377-2.261-5.596-6.11-5.596-10.477
	c0-2.307,0.619-4.471,1.702-6.33c6.206,7.614,15.471,12.628,25.926,13.148c-0.213-0.917-0.325-1.881-0.325-2.865
	c0-6.951,5.631-12.587,12.579-12.587c3.616,0,6.885,1.527,9.178,3.974c2.869-0.563,5.562-1.612,7.99-3.056
	c-0.942,2.939-2.935,5.409-5.535,6.962c2.547-0.304,4.974-0.979,7.229-1.981C79.734,35.938,77.6,38.158,75.141,39.932z"/>
</svg>
